<svg xmlns="http://www.w3.org/2000/svg" viewBox="-1 19 149 28" role="img" aria-label="Yale University">
  <g fill="#00356b">
		<path d="M13.3,24.9l-4,6.7v4.5c0.5,1.1,1.6,1.2,2.7,1.3V38H4.3v-0.6c1.1,0,2.4-0.2,2.8-0.9v-4.6l-4-6.8c-0.7-1.2-1.4-1.5-2.7-1.6
			v-0.6h6.7v0.6c-1.3,0.1-1.7,0.3-2,0.6l3.7,6.5l3.7-6.5c-0.4-0.3-0.9-0.6-2.2-0.6v-0.6h5.8v0.6C14.8,23.4,14,23.8,13.3,24.9z
			 M21.2,38.2c-1.3,0-1.9-0.9-2-1.5c-0.8,0.9-1.9,1.5-2.9,1.5c-1.3,0-2.4-0.8-2.4-2.2c0-0.7,0.2-1.4,0.5-1.9l4.8-1.7v-1.8
			c0-1.1-0.5-2.1-1.6-2.1c-0.6,0-1.3,0.8-1.3,2l-2.2,0.4v-0.2c0.7-2.2,3.1-3,4.2-3c2.2,0,3,1.2,3,2.9l-0.1,5c0,1,0.5,1.2,1,1.2
			c0.4,0,0.8-0.2,1.2-0.7v0.7C23,37.5,22,38.2,21.2,38.2z M16.4,34.3c-0.1,0.4-0.2,0.7-0.2,1.2c0,0.7,0.4,1.4,1.2,1.4
			c0.7,0,1.1-0.2,1.8-0.7l0-3.2C18.6,33.3,17.1,34,16.4,34.3z M23.7,38v-0.6c1.1-0.1,1.4-0.3,1.6-0.7V24.3c0-0.8-0.1-1.2-1.8-1.3
			v-0.5l4.4-1.1l0.1,0.4l-0.7,0.9v14c0.2,0.5,0.7,0.6,1.7,0.7V38H23.7z M34.8,38.2c-2.5,0-4.5-2-4.5-4.8c0-3.4,2.1-5.7,5-5.7
			c2.4,0,3.7,1.3,3.7,3.5v0.4l-6.5,0c0,0.3-0.1,0.7-0.1,1.2c0,2.4,1.5,4.1,3.6,4.1c1.2,0,1.8-0.4,2.8-1.2l0.4,0.6
			C37.9,37.4,36.8,38.2,34.8,38.2z M35,28.4c-1.2,0-2,1-2.3,2.5l4.2,0C36.9,29.6,36.1,28.4,35,28.4z"/>
		<path d="M59.8,24.4V32c0,4.4-2.7,6.4-6.3,6.4c-3.7,0-6-2.2-6-5.9v-8.2c-0.2-0.5-1.2-0.8-2.2-0.9v-0.6H52v0.6
			c-1.1,0-2.1,0.4-2.3,0.9V32c0,3,1.5,4.8,4.4,4.8c3,0,4.5-1.8,4.5-5.3v-3.1c0-1.4-0.1-3.3-0.1-4.1c-0.2-0.5-1.5-1-2.7-1.1v-0.6H62
			v0.6C60.9,23.4,60,23.9,59.8,24.4z"/>
		<path d="M68.9,38v-0.6c1.2-0.1,1.3-0.3,1.5-0.7v-5.2c0-1.3-0.9-2.4-2.1-2.4c-0.6,0-1.6,0.4-2.3,0.8v6.8c0.3,0.5,0.4,0.6,1.6,0.7
			V38h-5.2v-0.6c1.2-0.1,1.3-0.3,1.6-0.7v-6.2c0-0.5-0.4-1-1.5-1.3v-0.5l3.2-1.1H66v1.7c1.1-0.8,2.8-1.7,3.7-1.7
			c2.1,0,2.8,1.3,2.8,3.3v5.9c0.5,0.4,1,0.4,2,0.5V38H68.9z"/>
		<path d="M75.2,38v-0.6c1.2-0.1,1.4-0.3,1.6-0.7v-6.2c0-0.6-0.3-1-1.5-1.3v-0.4l3.3-1.1h0.3v9.1c0.3,0.5,0.4,0.6,1.6,0.7V38H75.2z
			 M77.7,24.8c-0.8,0-1.4-0.7-1.4-1.3c0-0.6,0.6-1.3,1.4-1.3c0.8,0,1.3,0.7,1.3,1.3C79,24.2,78.5,24.8,77.7,24.8z"/>
		<path d="M89.3,29.4c-0.2-0.4-0.8-0.8-1.8-0.8V28h4.3v0.6c-1,0-1.6,0.7-1.8,1.3L86.5,38l-0.9,0.2l-3.4-8.5c-0.3-0.6-0.8-1-1.8-1.1
			V28h5.4v0.6c-0.8,0-1.2,0.2-1.5,0.4l2.6,6.6L89.3,29.4z"/>
		<path d="M96.7,38.2c-2.5,0-4.5-2-4.5-4.8c0-3.4,2.1-5.7,5-5.7c2.4,0,3.7,1.3,3.7,3.5v0.4l-6.5,0c0,0.3-0.1,0.7-0.1,1.2
			c0,2.4,1.5,4.1,3.6,4.1c1.2,0,1.8-0.4,2.8-1.2l0.4,0.6C99.8,37.4,98.7,38.2,96.7,38.2z M96.9,28.4c-1.2,0-2,1-2.3,2.5l4.2,0
			C98.8,29.6,98,28.4,96.9,28.4z"/>
		<path d="M109.4,30.3h-0.2c-0.7-0.4-1.2-0.7-1.8-0.7s-0.9,0.4-1.4,0.9v6.2c0.3,0.5,1.2,0.6,2.2,0.7V38h-5.7v-0.6
			c1.2-0.1,1.3-0.3,1.5-0.7v-6.3c0-0.5-0.3-0.9-1.5-1.2v-0.5l3.2-1.1h0.2l0,2.3c1.1-1.2,2-2.2,2.9-2.2c0.6,0,1.2,0.2,1.7,0.5
			L109.4,30.3z"/>
		<path d="M114.8,38.2c-1.8,0-2.9-0.4-3.5-0.6L111,35h0.6c0.7,1.3,1.9,2.5,2.4,2.5c2,0,2.5-0.9,2.5-1.8c0-1-0.9-1.4-2.2-2
			c-2-0.8-3-1.6-3-3.2s1.7-2.9,3.8-2.9c1.3,0,2.4,0.4,3,0.6l0.1,2.5h-0.5c-0.7-1.3-1.7-2.4-2.3-2.4c-1.9,0-2.3,1-2.3,1.6
			c0,1,0.4,1.4,2.3,2.2c1.9,0.7,3,1.5,3,3C118.4,36.8,116.9,38.2,114.8,38.2z"/>
		<path d="M120.1,38v-0.6c1.2-0.1,1.4-0.3,1.6-0.7v-6.2c0-0.6-0.3-1-1.5-1.3v-0.4l3.3-1.1h0.3v9.1c0.3,0.5,0.4,0.6,1.6,0.7V38H120.1
			z M122.6,24.8c-0.8,0-1.4-0.7-1.4-1.3c0-0.6,0.6-1.3,1.4-1.3c0.8,0,1.3,0.7,1.3,1.3C123.9,24.2,123.4,24.8,122.6,24.8z"/>
		<path d="M130.4,38.2c-2.2,0-2.9-1.2-2.9-3.1c0-2.3,0.1-3.7,0.1-6l-1.3,0v-0.5l2.9-2.8h0.5l0,2.2h3.3v1.1l-3.3,0c0,2.4,0,3.5,0,5.7
			c0,1.3,0.9,2.2,2.3,2.2c0.6,0,1.4-0.4,1.6-0.5V37C132.9,37.5,131.2,38.2,130.4,38.2z"/>
		<path d="M141.8,29.4c-0.1-0.4-0.7-0.8-1.7-0.8V28h4.3v0.6c-1,0-1.6,0.7-1.8,1.3l-3,7.1c-0.5,1.2-1.5,3.9-2.4,6
			c-0.3,0.7-0.7,1-1.4,1c-0.8,0-1.2-0.6-1.2-1.2c0-0.6,0.4-1.2,1.2-1.2c0.2,0,0.6,0.1,0.9,0.2l1.5-3.5l-3.4-8.8
			c-0.2-0.6-0.6-1-1.6-1.1V28h5.2v0.6c-0.8,0-1.2,0.2-1.6,0.4l2.6,6.7L141.8,29.4z"/>
  </g>
</svg>
