<?xml version="1.0" standalone="no"?>
<!DOCTYPE svg PUBLIC "-//W3C//DTD SVG 20010904//EN"
 "http://www.w3.org/TR/2001/REC-SVG-20010904/DTD/svg10.dtd">
<svg version="1.0" xmlns="http://www.w3.org/2000/svg"
 width="32.000000pt" height="32.000000pt" viewBox="0 0 32.000000 32.000000"
 preserveAspectRatio="xMidYMid meet">

<g transform="translate(0.000000,32.000000) scale(0.100000,-0.100000)"
fill="#000000" stroke="none">
<path d="M108 283 c6 -2 18 -2 25 0 6 3 1 5 -13 5 -14 0 -19 -2 -12 -5z"/>
<path d="M174 281 c14 -5 16 -10 8 -15 -7 -4 -16 -5 -20 -2 -5 3 -9 -1 -9 -9
0 -8 9 -15 19 -15 11 0 17 4 13 9 -3 5 -1 12 5 16 18 11 11 25 -12 24 -21 0
-21 -1 -4 -8z"/>
<path d="M50 250 c0 -5 5 -10 11 -10 5 0 7 5 4 10 -3 6 -8 10 -11 10 -2 0 -4
-4 -4 -10z"/>
<path d="M246 237 c3 -10 9 -15 12 -12 3 3 0 11 -7 18 -10 9 -11 8 -5 -6z"/>
<path d="M70 220 c-12 -8 -9 -10 13 -10 15 0 27 5 27 10 0 13 -20 13 -40 0z"/>
<path d="M144 219 c-8 -14 8 -30 22 -21 9 5 8 10 -2 19 -9 9 -15 10 -20 2z"/>
<path d="M220 195 c7 -8 16 -15 21 -15 5 0 6 7 3 15 -4 8 -13 15 -21 15 -13 0
-13 -3 -3 -15z"/>
<path d="M114 160 c-5 -5 -24 -10 -41 -12 -17 -1 -30 -5 -28 -8 2 -4 47 -5 76
-1 3 1 6 8 6 16 0 18 0 18 -13 5z"/>
<path d="M184 141 c8 -12 -21 -34 -34 -26 -7 4 -6 -2 2 -14 16 -26 26 -27 24
-3 -1 12 6 17 22 16 21 -1 21 0 5 18 -17 19 -28 24 -19 9z"/>
<path d="M255 139 c-4 -6 -5 -12 -2 -15 2 -3 7 2 10 11 7 17 1 20 -8 4z"/>
<path d="M102 104 c9 -9 21 -15 27 -13 6 2 -2 10 -17 17 -25 11 -25 11 -10 -4z"/>
<path d="M208 83 c7 -3 16 -2 19 1 4 3 -2 6 -13 5 -11 0 -14 -3 -6 -6z"/>
</g>
</svg>
