<?xml version="1.0" standalone="no"?>
<svg xmlns="http://www.w3.org/2000/svg"
     viewBox="0 0 1254 1254"
     role="img" aria-label="The Center for Dynamic Causality">
  <title>The Center for Dynamic Causality</title>

  <!-- Emblem (traced from v1) -->
  <g transform="translate(0,1254) scale(0.1,-0.1)" fill="#FAF6EC" stroke="none">
<path d="M6000 11373 c-380 -18 -815 -119 -1175 -273 -385 -164 -713 -388
-1026 -700 -578 -577 -919 -1301 -1010 -2150 -18 -165 -15 -554 5 -725 108
-919 559 -1731 1283 -2315 595 -480 1329 -743 2078 -743 110 -1 252 5 315 12
663 73 1253 348 1727 805 272 262 487 560 658 911 81 165 161 362 151 372 -2
2 -7 -6 -11 -19 -20 -61 -100 -235 -160 -348 -428 -796 -1128 -1340 -1921
-1494 -196 -37 -311 -48 -519 -48 -725 1 -1432 275 -2018 781 -620 536 -1010
1248 -1137 2076 -43 276 -38 694 11 968 174 977 760 1821 1607 2314 449 261
989 403 1534 403 272 0 491 -31 748 -106 856 -248 1559 -933 1871 -1824 56
-158 65 -158 14 0 -258 795 -791 1437 -1486 1786 -467 234 -996 343 -1539 317z"/>
<path d="M5821 10930 c-32 -76 -91 -234 -87 -237 2 -2 20 3 40 11 l36 15 0
-280 c0 -241 -2 -279 -15 -279 -8 0 -15 -4 -15 -10 0 -5 7 -10 15 -10 13 0 15
-125 15 -1069 l0 -1068 -28 -6 c-28 -6 -71 -40 -88 -70 -9 -15 -16 -14 -84 8
-68 21 -295 107 -442 167 -42 16 -58 28 -58 42 0 15 -3 16 -14 7 -12 -10 -38
-2 -133 40 -396 174 -715 368 -993 605 -193 165 -190 163 -115 85 178 -185
441 -376 743 -543 24 -13 29 -21 25 -40 -5 -21 -4 -22 8 -5 14 17 26 13 199
-68 102 -47 200 -93 219 -101 23 -10 31 -18 24 -25 -7 -7 -53 5 -144 39 -492
184 -766 315 -1114 537 -95 61 -36 5 73 -68 53 -36 154 -98 224 -138 116 -65
127 -74 122 -96 -4 -14 -2 -23 6 -23 6 0 14 8 17 19 4 16 22 11 171 -56 149
-67 424 -177 571 -229 48 -17 72 -37 59 -49 -4 -5 -384 96 -432 115 -19 7 -22
14 -18 36 3 19 1 25 -7 20 -6 -4 -11 -16 -11 -27 0 -24 -1 -23 -200 40 -125
40 -145 50 -148 69 -4 25 -22 31 -22 7 0 -8 -4 -15 -9 -15 -15 0 -243 87 -421
161 -90 38 -165 67 -167 65 -7 -6 282 -139 418 -192 232 -90 577 -197 917
-285 83 -21 109 -37 84 -53 -9 -5 -327 44 -607 95 -170 30 -397 80 -659 145
-77 19 -147 34 -155 33 -34 -1 134 -52 334 -100 115 -28 216 -53 223 -55 6 -2
12 -13 12 -24 0 -25 16 -26 22 -2 5 17 11 17 129 -6 68 -13 147 -28 176 -33
52 -10 52 -11 46 -41 -4 -22 -3 -29 5 -24 7 4 12 19 12 32 0 24 3 25 32 18 18
-3 121 -21 228 -39 125 -21 194 -37 192 -44 -3 -14 15 -15 20 0 2 7 45 3 131
-12 70 -12 125 -25 122 -27 -2 -3 -82 0 -177 7 -95 6 -315 20 -488 31 -451 29
-440 27 -440 57 0 13 -4 21 -10 18 -5 -3 -10 -15 -10 -27 0 -18 -4 -19 -47
-14 -108 14 -536 47 -541 42 -9 -9 283 -43 618 -71 365 -31 345 -28 344 -48
-2 -24 13 -21 19 3 4 16 11 20 29 16 13 -3 79 -8 148 -11 243 -11 280 -16 280
-35 0 -20 31 -17 -540 -41 -304 -12 -629 -34 -760 -51 -149 -20 -51 -22 198
-4 119 9 223 16 230 16 7 0 17 -10 22 -22 l9 -23 6 22 c6 19 15 22 113 27 59
3 137 8 173 11 62 5 67 3 74 -18 7 -22 8 -22 12 -1 4 21 11 22 171 28 377 14
587 18 581 12 -3 -3 -62 -13 -130 -22 -92 -12 -128 -13 -141 -5 -14 9 -18 8
-18 -2 0 -8 -60 -21 -202 -41 -112 -16 -219 -30 -238 -32 -34 -3 -293 -46
-357 -60 -31 -6 -33 -5 -33 20 0 14 -4 26 -10 26 -5 0 -10 -12 -10 -28 0 -27
-2 -28 -112 -50 -135 -28 -350 -84 -344 -90 3 -2 116 19 253 47 333 68 563
105 576 92 7 -7 14 -6 21 3 7 9 81 23 206 40 107 14 208 28 223 31 19 3 30 0
34 -11 3 -8 4 -17 1 -19 -10 -10 -441 -106 -455 -101 -8 4 -21 0 -27 -7 -6 -8
-87 -35 -181 -61 -93 -26 -179 -52 -190 -56 -11 -5 -75 -30 -142 -55 -130 -49
-273 -111 -273 -119 0 -3 37 8 83 25 274 103 330 120 339 104 11 -19 28 -11
28 13 0 14 33 27 152 61 83 24 163 44 177 46 14 1 37 7 51 13 14 7 118 34 232
60 166 39 208 46 212 35 3 -8 0 -16 -7 -18 -129 -50 -426 -145 -440 -141 -9 2
-20 -2 -25 -9 -6 -10 -112 -59 -329 -152 -8 -3 -13 3 -13 17 0 13 -5 20 -12
17 -7 -2 -12 -15 -10 -28 2 -21 -8 -29 -75 -64 -76 -40 -189 -108 -208 -127
-5 -5 78 35 185 90 200 101 430 202 465 205 11 0 22 5 26 9 5 8 399 144 435
150 9 2 18 -1 20 -7 2 -5 -49 -32 -114 -59 -64 -28 -162 -71 -217 -98 -57 -27
-107 -45 -117 -42 -12 3 -18 0 -18 -10 0 -9 -26 -29 -62 -47 -171 -86 -412
-247 -509 -341 -30 -29 -46 -46 -35 -37 12 9 73 53 136 98 97 69 117 79 126
66 16 -22 24 -19 24 9 0 16 10 32 28 44 45 31 279 163 293 166 8 1 26 10 40
19 90 60 542 245 844 347 l201 67 36 -42 c21 -23 51 -46 70 -51 32 -9 33 -12
33 -59 -1 -28 -2 -443 -3 -924 -2 -771 -4 -872 -17 -867 -8 3 -15 1 -15 -3 0
-5 7 -11 15 -15 13 -4 15 -39 15 -221 0 -195 -2 -216 -16 -213 -25 4 -28 -19
-4 -25 19 -5 20 -13 20 -114 0 -107 -1 -110 -25 -121 -64 -29 -71 -136 -12
-172 48 -30 83 -26 123 14 50 50 42 121 -18 152 l-28 15 0 1273 0 1274 25 6
c14 4 43 23 65 42 l40 36 42 -25 c24 -14 93 -75 153 -137 255 -259 423 -352
640 -354 198 -2 328 71 548 308 272 293 354 361 458 386 152 37 243 -17 559
-325 262 -256 367 -323 545 -349 189 -29 331 57 581 350 154 181 244 248 367
274 45 9 69 9 113 -1 49 -11 62 -10 111 6 l56 19 -44 12 c-24 6 -71 25 -105
42 -135 68 -265 79 -386 30 -81 -33 -109 -56 -293 -243 -203 -206 -242 -231
-353 -223 -125 9 -210 65 -447 296 -226 219 -310 280 -454 329 -60 20 -97 26
-171 26 -217 2 -356 -80 -616 -364 -216 -235 -319 -305 -466 -316 -128 -9
-242 31 -456 159 -101 61 -213 109 -310 133 -62 15 -73 20 -70 37 2 14 27 27
108 54 85 28 431 187 515 236 70 41 574 317 639 350 77 39 78 39 92 19 18 -25
74 -44 107 -36 40 11 70 50 73 96 1 22 6 44 10 48 16 14 226 98 311 125 177
55 386 84 507 71 l66 -7 0 -32 c0 -17 7 -42 16 -55 20 -28 78 -54 104 -46 15
5 23 -8 50 -82 48 -132 87 -294 105 -427 17 -130 32 -174 20 -61 -16 161 -77
411 -140 567 -4 11 0 18 14 23 12 3 28 19 36 35 13 26 18 28 45 20 38 -11 39
-2 2 11 -21 7 -31 19 -38 47 -6 21 -15 36 -23 34 -7 -1 -10 2 -6 7 12 20 -43
44 -91 38 l-45 -5 -41 81 c-53 107 -143 249 -232 366 -72 96 -292 329 -301
319 -3 -3 33 -43 81 -89 185 -180 338 -390 460 -632 l25 -48 -21 -26 c-20 -26
-21 -26 -173 -28 -128 -1 -171 -5 -272 -29 -134 -31 -269 -76 -393 -130 l-83
-36 -22 21 c-62 58 -167 17 -167 -65 0 -35 -2 -37 -92 -82 -51 -26 -190 -99
-308 -164 -439 -239 -657 -349 -800 -404 -127 -48 -133 -48 -162 -6 -12 19
-42 44 -65 55 l-42 20 -1 861 0 862 23 16 22 17 -22 -6 -23 -6 0 485 0 485 36
-15 c20 -8 38 -13 40 -11 3 3 -36 113 -86 242 -7 19 -8 19 -19 -5z m-604
-2878 c52 -20 90 -38 86 -39 -17 -6 -207 64 -211 77 -3 9 1 11 13 6 10 -4 61
-23 112 -44z m-2 -46 c55 -19 94 -35 87 -35 -13 -1 -224 49 -231 55 -9 8 13
24 28 19 9 -3 62 -20 116 -39z m-45 -32 c129 -35 157 -46 105 -39 -194 25
-215 29 -215 47 0 23 -4 23 110 -8z m43 -109 c60 -4 107 -8 105 -10 -2 -1 -63
-6 -135 -10 -132 -7 -133 -7 -133 15 0 18 4 21 28 16 15 -2 76 -8 135 -11z
m96 -89 c-5 -5 -234 -56 -250 -56 -5 0 -9 6 -9 14 0 10 15 17 43 21 134 19
165 23 191 24 16 0 27 -1 25 -3z m-32 -42 c-15 -15 -207 -71 -213 -62 -3 5 -3
12 0 15 4 4 128 34 215 52 2 1 1 -2 -2 -5z m-28 -49 c-9 -9 -152 -65 -165 -65
-37 0 -6 19 69 43 82 26 104 31 96 22z"/>
<path d="M6333 10253 c-22 -8 -14 -23 12 -23 16 0 25 6 25 15 0 15 -14 18 -37
8z"/>
<path d="M6422 10248 c7 -20 58 -23 58 -4 0 11 -10 16 -31 16 -20 0 -29 -4
-27 -12z"/>
<path d="M6530 10245 c0 -10 10 -15 30 -15 35 0 40 15 8 24 -34 9 -38 8 -38
-9z"/>
<path d="M6210 10234 c0 -11 5 -14 16 -10 9 3 22 6 30 6 9 0 12 5 9 10 -10 17
-55 12 -55 -6z"/>
<path d="M6640 10240 c0 -15 27 -23 48 -15 16 7 15 8 -3 15 -28 12 -45 12 -45
0z"/>
<path d="M6110 10230 c-8 -5 -11 -12 -8 -16 10 -9 58 4 58 16 0 13 -30 13 -50
0z"/>
<path d="M6750 10220 c0 -5 11 -10 25 -10 14 0 25 5 25 10 0 6 -11 10 -25 10
-14 0 -25 -4 -25 -10z"/>
<path d="M6000 10204 c0 -11 5 -14 16 -10 9 3 20 6 25 6 5 0 9 5 9 10 0 6 -11
10 -25 10 -16 0 -25 -6 -25 -16z"/>
<path d="M6854 10209 c-8 -13 -4 -16 23 -21 12 -1 23 1 23 7 2 13 -38 26 -46
14z"/>
<path d="M5920 10190 c-12 -8 -11 -10 8 -10 12 0 22 5 22 10 0 13 -11 13 -30
0z"/>
<path d="M6957 10184 c-3 -4 -4 -11 -1 -15 7 -12 54 -11 54 1 0 6 -4 10 -9 10
-5 0 -16 2 -23 5 -8 3 -17 3 -21 -1z"/>
<path d="M7060 10145 c0 -8 4 -15 9 -15 5 0 17 -3 27 -7 11 -4 15 -2 12 7 -6
20 -48 33 -48 15z"/>
<path d="M5700 10130 c-8 -5 -12 -12 -8 -15 9 -9 48 4 48 16 0 12 -21 11 -40
-1z"/>
<path d="M7160 10110 c0 -14 39 -32 52 -24 7 4 2 12 -13 20 -29 16 -39 17 -39
4z"/>
<path d="M5593 10093 c-7 -2 -13 -9 -13 -14 0 -14 24 -11 46 6 19 14 19 14 -1
14 -11 0 -26 -3 -32 -6z"/>
<path d="M7260 10062 c0 -5 11 -14 25 -20 20 -9 25 -9 25 2 0 8 -7 17 -16 20
-22 8 -34 8 -34 -2z"/>
<path d="M5493 10053 c-12 -4 -19 -33 -8 -33 12 0 55 24 55 32 0 9 -27 10 -47
1z"/>
<path d="M7360 10018 c0 -14 39 -43 47 -34 7 7 -6 25 -28 36 -14 8 -19 7 -19
-2z"/>
<path d="M5394 9996 c-10 -8 -16 -17 -12 -21 8 -8 48 13 48 25 0 14 -13 12
-36 -4z"/>
<path d="M6570 9974 c-136 -21 -317 -66 -448 -113 -116 -40 -130 -47 -120 -57
3 -3 34 7 69 21 96 39 288 93 413 115 378 69 729 34 1068 -108 l88 -37 0 -45
c0 -52 18 -83 60 -105 94 -49 201 42 167 142 -17 50 -57 78 -113 77 -25 -1
-50 -6 -56 -12 -7 -7 -20 -12 -30 -12 -10 0 -18 -7 -18 -16 0 -9 -5 -14 -12
-10 -172 78 -359 135 -531 160 -131 20 -406 19 -537 0z"/>
<path d="M7456 9961 c-3 -5 5 -16 19 -25 28 -18 35 -20 35 -7 0 13 -48 42 -54
32z"/>
<path d="M5299 9942 c-29 -24 -11 -36 20 -13 14 11 19 21 13 25 -5 3 -20 -2
-33 -12z"/>
<path d="M5206 9885 c-27 -21 -10 -38 19 -19 14 9 22 20 19 25 -7 12 -16 11
-38 -6z"/>
<path d="M7550 9893 c0 -5 11 -16 25 -26 29 -21 47 -3 19 18 -21 16 -44 19
-44 8z"/>
<path d="M5114 9816 c-10 -8 -16 -17 -12 -21 8 -8 48 13 48 25 0 14 -13 12
-36 -4z"/>
<path d="M5933 9788 c-21 -10 -32 -28 -18 -28 10 0 65 30 65 35 0 8 -23 4 -47
-7z"/>
<path d="M5031 9746 c-13 -13 -18 -26 -13 -30 5 -3 19 5 31 18 13 13 18 26 13
30 -5 3 -19 -5 -31 -18z"/>
<path d="M5753 9698 c-13 -6 -23 -15 -23 -20 0 -14 16 -9 41 12 26 21 17 25
-18 8z"/>
<path d="M4945 9670 c-10 -11 -15 -23 -12 -27 8 -7 47 25 47 39 0 14 -16 9
-35 -12z"/>
<path d="M5666 9644 c-11 -7 -17 -16 -15 -19 3 -3 14 2 25 9 10 8 17 17 14 19
-3 3 -14 -1 -24 -9z"/>
<path d="M4875 9600 c-25 -27 -10 -39 16 -13 12 11 17 23 11 27 -5 3 -17 -3
-27 -14z"/>
<path d="M5574 9586 c-10 -8 -16 -17 -13 -20 3 -4 17 2 30 13 27 23 13 28 -17
7z"/>
<path d="M4802 9519 c-7 -12 -11 -23 -8 -26 8 -9 36 17 36 33 0 20 -13 17 -28
-7z"/>
<path d="M5490 9525 c-19 -23 -8 -26 20 -5 19 15 21 20 9 20 -9 0 -22 -7 -29
-15z"/>
<path d="M5405 9460 c-10 -11 -14 -20 -9 -20 12 1 44 25 44 34 0 12 -17 6 -35
-14z"/>
<path d="M4735 9440 c-25 -27 -10 -39 16 -13 12 11 17 23 11 27 -5 3 -17 -3
-27 -14z"/>
<path d="M5331 9399 c-13 -11 -21 -23 -17 -26 4 -4 16 3 28 15 28 28 20 36
-11 11z"/>
<path d="M4667 9352 c-10 -10 -14 -22 -10 -25 7 -8 43 21 43 35 0 14 -16 9
-33 -10z"/>
<path d="M5250 9325 c-13 -14 -19 -25 -13 -25 12 0 48 38 41 45 -2 3 -15 -6
-28 -20z"/>
<path d="M4605 9264 c-17 -26 -15 -41 4 -29 6 3 15 15 21 25 16 30 -6 33 -25
4z"/>
<path d="M5175 9250 c-27 -30 -12 -34 15 -5 13 14 19 25 13 25 -5 0 -18 -9
-28 -20z"/>
<path d="M4546 9168 c-9 -12 -16 -26 -16 -30 0 -16 18 -7 34 16 20 31 3 44
-18 14z"/>
<path d="M5096 9165 c-23 -36 -20 -42 9 -15 26 24 32 40 16 40 -5 0 -16 -11
-25 -25z"/>
<path d="M5025 9080 c-10 -11 -16 -22 -13 -25 3 -3 13 4 23 15 10 11 16 22 13
25 -3 3 -13 -4 -23 -15z"/>
<path d="M9071 9084 c0 -11 3 -14 6 -6 3 7 2 16 -1 19 -3 4 -6 -2 -5 -13z"/>
<path d="M4490 9070 c-17 -32 -6 -46 13 -17 9 15 13 28 7 32 -5 3 -14 -4 -20
-15z"/>
<path d="M9081 9044 c0 -11 3 -14 6 -6 3 7 2 16 -1 19 -3 4 -6 -2 -5 -13z"/>
<path d="M4956 8991 c-10 -11 -16 -25 -14 -32 2 -7 12 0 22 16 21 32 16 43 -8
16z"/>
<path d="M4440 8969 c-7 -11 -9 -24 -5 -27 7 -7 35 25 35 40 0 16 -19 8 -30
-13z"/>
<path d="M4890 8895 c-6 -8 -10 -20 -8 -26 2 -6 12 0 21 15 18 27 8 37 -13 11z"/>
<path d="M4392 8865 c-10 -21 -9 -25 3 -25 8 0 15 4 15 9 0 5 3 16 6 25 10 26
-12 18 -24 -9z"/>
<path d="M4830 8799 c-6 -11 -9 -25 -7 -32 2 -7 11 3 21 21 9 17 12 32 7 32
-6 0 -15 -9 -21 -21z"/>
<path d="M4356 8774 c-3 -9 -6 -23 -6 -32 1 -15 3 -14 15 2 17 22 20 46 6 46
-5 0 -12 -7 -15 -16z"/>
<path d="M8744 8725 c22 -17 40 -20 32 -6 -3 5 -16 11 -28 14 -22 6 -22 5 -4
-8z"/>
<path d="M4772 8695 c-14 -29 2 -34 18 -6 12 24 13 31 2 31 -5 0 -14 -11 -20
-25z"/>
<path d="M8820 8690 c8 -5 20 -10 25 -10 6 0 3 5 -5 10 -8 5 -19 10 -25 10 -5
0 -3 -5 5 -10z"/>
<path d="M4317 8668 c-7 -25 -3 -33 12 -23 13 8 15 45 2 45 -5 0 -11 -10 -14
-22z"/>
<path d="M8890 8656 c0 -3 9 -10 20 -16 11 -6 20 -8 20 -6 0 3 -9 10 -20 16
-11 6 -20 8 -20 6z"/>
<path d="M5755 8630 c-3 -5 3 -10 14 -10 12 0 21 5 21 10 0 6 -6 10 -14 10 -8
0 -18 -4 -21 -10z"/>
<path d="M5865 8630 c3 -5 13 -10 21 -10 8 0 14 5 14 10 0 6 -9 10 -21 10 -11
0 -17 -4 -14 -10z"/>
<path d="M4731 8612 c-7 -13 -11 -28 -8 -35 2 -7 9 -2 16 11 7 13 11 28 8 35
-2 7 -9 2 -16 -11z"/>
<path d="M5678 8623 c-10 -2 -18 -8 -18 -13 0 -4 9 -6 20 -3 11 3 20 9 20 14
0 5 -1 8 -2 8 -2 -1 -11 -3 -20 -6z"/>
<path d="M5960 8620 c0 -5 9 -10 21 -10 11 0 17 5 14 10 -3 6 -13 10 -21 10
-8 0 -14 -4 -14 -10z"/>
<path d="M6054 8601 c8 -12 46 -21 46 -11 0 8 -24 20 -41 20 -6 0 -8 -4 -5 -9z"/>
<path d="M5565 8590 c-8 -13 15 -13 35 0 12 8 11 10 -7 10 -12 0 -25 -4 -28
-10z"/>
<path d="M5490 8560 c-8 -5 -12 -11 -9 -14 3 -3 14 1 25 9 21 16 8 20 -16 5z"/>
<path d="M6160 8560 c8 -5 22 -10 30 -10 13 0 13 1 0 10 -8 5 -22 10 -30 10
-13 0 -13 -1 0 -10z"/>
<path d="M4687 8508 c-6 -21 -2 -36 7 -27 10 11 16 49 8 49 -5 0 -12 -10 -15
-22z"/>
<path d="M5410 8515 c-7 -8 -8 -15 -2 -15 5 0 15 7 22 15 7 8 8 15 2 15 -5 0
-15 -7 -22 -15z"/>
<path d="M6259 8509 c13 -11 26 -17 29 -14 7 6 -29 34 -43 34 -5 0 1 -9 14
-20z"/>
<path d="M5340 8465 c-20 -24 -6 -28 15 -5 10 11 13 20 8 20 -6 0 -16 -7 -23
-15z"/>
<path d="M6350 8445 c7 -8 17 -15 22 -15 6 0 5 7 -2 15 -7 8 -17 15 -22 15 -6
0 -5 -7 2 -15z"/>
<path d="M4656 8424 c-9 -23 -7 -36 3 -30 12 8 21 46 11 46 -4 0 -11 -7 -14
-16z"/>
<path d="M5265 8400 c-10 -11 -16 -22 -13 -25 3 -3 13 4 23 15 10 11 16 22 13
25 -3 3 -13 -4 -23 -15z"/>
<path d="M6426 8375 c4 -8 11 -15 16 -15 6 0 5 6 -2 15 -7 8 -14 15 -16 15 -2
0 -1 -7 2 -15z"/>
<path d="M5202 8328 c-7 -7 -12 -19 -12 -27 0 -11 5 -8 16 7 18 25 15 39 -4
20z"/>
<path d="M6480 8312 c0 -12 19 -26 26 -19 2 2 -2 10 -11 17 -9 8 -15 8 -15 2z"/>
<path d="M5142 8238 c-7 -7 -12 -19 -12 -27 0 -11 5 -8 16 7 18 25 15 39 -4
20z"/>
<path d="M6536 8225 c4 -8 11 -15 16 -15 6 0 5 6 -2 15 -7 8 -14 15 -16 15 -2
0 -1 -7 2 -15z"/>
<path d="M4207 8203 c-10 -10 -8 -53 2 -53 8 0 20 32 21 53 0 9 -14 9 -23 0z"/>
<path d="M10340 8178 c0 -7 11 -56 25 -108 14 -52 25 -98 25 -102 0 -3 -35
-10 -77 -13 -134 -13 -137 -18 -24 -45 55 -13 101 -28 101 -34 0 -5 -12 -59
-26 -118 -14 -60 -24 -111 -22 -114 4 -4 392 191 491 246 l49 28 -265 136
c-146 75 -267 136 -271 136 -3 0 -6 -6 -6 -12z"/>
<path d="M4577 8096 c-5 -15 -6 -31 -3 -34 8 -8 18 25 14 45 -3 13 -6 10 -11
-11z"/>
<path d="M6610 8055 c0 -8 4 -15 10 -15 5 0 7 7 4 15 -4 8 -8 15 -10 15 -2 0
-4 -7 -4 -15z"/>
<path d="M8707 7968 c8 -46 13 -48 13 -5 0 21 -4 37 -10 37 -5 0 -7 -14 -3
-32z"/>
<path d="M6632 7970 c0 -14 2 -19 5 -12 2 6 2 18 0 25 -3 6 -5 1 -5 -13z"/>
<path d="M4180 7880 c0 -16 5 -30 10 -30 6 0 10 14 10 30 0 17 -4 30 -10 30
-5 0 -10 -13 -10 -30z"/>
<path d="M6640 7870 c0 -11 4 -20 9 -20 5 0 7 9 4 20 -3 11 -7 20 -9 20 -2 0
-4 -9 -4 -20z"/>
<path d="M8713 7850 c0 -25 2 -35 4 -22 2 12 2 32 0 45 -2 12 -4 2 -4 -23z"/>
<path d="M6642 7780 c0 -14 2 -19 5 -12 2 6 2 18 0 25 -3 6 -5 1 -5 -13z"/>
<path d="M8712 7740 c0 -19 2 -27 5 -17 2 9 2 25 0 35 -3 9 -5 1 -5 -18z"/>
<path d="M6631 7684 c0 -11 3 -14 6 -6 3 7 2 16 -1 19 -3 4 -6 -2 -5 -13z"/>
<path d="M4180 7576 c0 -24 16 -43 27 -32 8 8 -6 56 -17 56 -6 0 -10 -11 -10
-24z"/>
<path d="M3688 7523 c7 -3 16 -2 19 1 4 3 -2 6 -13 5 -11 0 -14 -3 -6 -6z"/>
<path d="M5090 7523 c0 -14 19 -38 25 -32 8 8 -5 39 -16 39 -5 0 -9 -3 -9 -7z"/>
<path d="M5140 7432 c0 -10 22 -32 32 -32 5 0 3 9 -4 20 -13 20 -28 27 -28 12z"/>
<path d="M5200 7353 c0 -5 9 -18 20 -28 11 -10 20 -14 20 -8 0 5 -9 18 -20 28
-11 10 -20 14 -20 8z"/>
<path d="M8667 7305 c-9 -73 -52 -244 -64 -256 -17 -17 -198 -50 -318 -59
-163 -11 -348 3 -542 41 -46 9 -53 14 -53 33 0 33 -35 73 -75 86 -43 14 -97
-1 -120 -33 l-15 -22 -83 29 c-45 15 -143 53 -218 82 -144 57 -149 59 -149 45
0 -9 186 -84 340 -137 l95 -32 7 -44 c10 -56 54 -98 104 -98 35 0 94 24 94 38
0 5 6 16 13 25 11 16 18 16 92 3 260 -48 528 -47 741 4 43 10 81 17 83 14 9
-8 -85 -257 -145 -381 -116 -245 -263 -458 -446 -649 -172 -178 -428 -361
-428 -304 0 5 -13 16 -30 25 -81 42 -170 -13 -170 -104 0 -27 -3 -29 -86 -50
-48 -12 -135 -27 -193 -32 -142 -14 -196 -30 -76 -23 97 6 218 26 303 50 l53
15 28 -30 c68 -73 182 -42 198 52 6 40 69 117 96 117 8 0 30 16 48 35 19 19
39 35 45 35 18 0 266 242 333 325 210 257 360 531 465 853 15 45 32 82 37 82
20 0 215 98 239 119 l25 23 -35 -20 c-19 -11 -55 -31 -80 -44 -54 -31 -138
-63 -145 -56 -3 3 6 58 20 124 14 65 25 132 23 149 -2 21 -6 12 -11 -30z"/>
<path d="M6436 7314 c-5 -14 -4 -15 9 -4 17 14 19 20 6 20 -5 0 -12 -7 -15
-16z"/>
<path d="M4620 7298 c0 -15 5 -30 10 -33 13 -8 13 25 0 45 -8 12 -10 9 -10
-12z"/>
<path d="M4226 7281 c-9 -14 2 -51 15 -51 11 0 12 30 0 49 -6 9 -11 10 -15 2z"/>
<path d="M5285 7260 c10 -11 20 -18 23 -15 7 6 -18 35 -31 35 -5 0 -2 -9 8
-20z"/>
<path d="M6369 7243 c-13 -16 -12 -17 4 -4 9 7 17 15 17 17 0 8 -8 3 -21 -13z"/>
<path d="M8940 7225 c-11 -13 -10 -14 4 -9 9 3 16 10 16 15 0 13 -6 11 -20 -6z"/>
<path d="M4640 7213 c1 -5 7 -19 15 -33 10 -18 14 -20 15 -8 0 23 -11 48 -21
48 -5 0 -9 -3 -9 -7z"/>
<path d="M5364 7195 c26 -19 42 -19 26 0 -7 8 -20 15 -29 15 -13 -1 -13 -3 3
-15z"/>
<path d="M6290 7190 c-8 -5 -11 -12 -7 -16 4 -4 15 0 24 9 18 18 8 23 -17 7z"/>
<path d="M5453 7143 c9 -9 20 -13 24 -9 4 4 1 11 -7 16 -25 16 -35 11 -17 -7z"/>
<path d="M6204 7135 c-10 -8 -14 -14 -9 -15 15 0 40 18 34 24 -3 3 -14 -1 -25
-9z"/>
<path d="M4680 7116 c0 -14 21 -58 26 -54 8 8 -7 58 -17 58 -5 0 -9 -2 -9 -4z"/>
<path d="M5530 7109 c0 -5 4 -9 9 -9 5 0 17 -3 27 -7 11 -4 15 -3 11 4 -9 14
-47 24 -47 12z"/>
<path d="M6115 7100 c-19 -8 -19 -9 2 -9 12 -1 25 4 28 9 7 12 -2 12 -30 0z"/>
<path d="M5630 7080 c0 -4 9 -10 20 -13 11 -3 20 -2 20 3 0 4 -9 10 -20 13
-11 3 -20 2 -20 -3z"/>
<path d="M4270 7056 c0 -26 15 -43 24 -28 7 12 -4 52 -15 52 -5 0 -9 -11 -9
-24z"/>
<path d="M6020 7070 c-13 -8 -13 -10 2 -10 9 0 20 5 23 10 8 13 -5 13 -25 0z"/>
<path d="M5730 7059 c0 -5 9 -9 20 -9 11 0 20 2 20 4 0 2 -9 6 -20 9 -11 3
-20 1 -20 -4z"/>
<path d="M5923 7053 c9 -2 23 -2 30 0 6 3 -1 5 -18 5 -16 0 -22 -2 -12 -5z"/>
<path d="M4721 7015 c0 -18 28 -61 29 -44 0 8 -7 24 -15 35 -8 10 -14 15 -14
9z"/>
<path d="M4290 6976 c0 -3 5 -17 10 -32 8 -19 14 -24 21 -17 8 8 7 17 0 32
-10 18 -31 30 -31 17z"/>
<path d="M3929 6943 c-13 -16 -12 -17 4 -4 9 7 17 15 17 17 0 8 -8 3 -21 -13z"/>
<path d="M4771 6915 c0 -18 28 -61 29 -44 0 8 -7 24 -15 35 -8 10 -14 15 -14
9z"/>
<path d="M4330 6863 c0 -22 17 -49 25 -41 8 8 -5 58 -16 58 -5 0 -9 -8 -9 -17z"/>
<path d="M4820 6813 c1 -10 39 -60 40 -51 0 14 -23 58 -32 58 -4 0 -8 -3 -8
-7z"/>
<path d="M4367 6774 c-7 -8 13 -54 25 -54 9 0 10 7 2 38 -6 22 -15 27 -27 16z"/>
<path d="M4880 6714 c0 -3 5 -14 10 -25 16 -28 32 -23 18 6 -10 22 -28 35 -28
19z"/>
<path d="M4410 6667 c0 -18 27 -53 35 -46 7 8 -15 59 -27 59 -4 0 -8 -6 -8
-13z"/>
<path d="M4940 6624 c0 -14 27 -50 33 -44 3 3 -3 16 -13 30 -11 14 -20 20 -20
14z"/>
<path d="M4457 6584 c-9 -10 15 -54 30 -54 11 0 11 6 -2 30 -16 32 -18 33 -28
24z"/>
<path d="M5017 6505 c18 -25 33 -32 33 -17 0 10 -33 42 -44 42 -4 0 1 -11 11
-25z"/>
<path d="M4510 6479 c0 -6 5 -19 11 -30 15 -28 31 -13 17 16 -11 25 -28 34
-28 14z"/>
<path d="M5080 6433 c0 -13 29 -38 35 -31 3 3 -4 13 -15 23 -11 10 -20 13 -20
8z"/>
<path d="M4560 6388 c0 -7 7 -21 14 -31 18 -23 31 -5 16 23 -12 22 -30 27 -30
8z"/>
<path d="M5150 6353 c0 -5 9 -18 20 -28 11 -10 20 -14 20 -8 0 5 -9 18 -20 28
-11 10 -20 14 -20 8z"/>
<path d="M4620 6296 c0 -16 28 -42 36 -33 7 6 -18 47 -28 47 -5 0 -8 -6 -8
-14z"/>
<path d="M5235 6260 c10 -11 23 -20 28 -20 6 0 2 9 -8 20 -10 11 -23 20 -28
20 -6 0 -2 -9 8 -20z"/>
<path d="M4680 6219 c1 -15 23 -49 34 -49 13 0 5 28 -14 45 -15 14 -20 15 -20
4z"/>
<path d="M5300 6203 c0 -12 38 -48 45 -41 3 2 -6 15 -20 28 -14 13 -25 19 -25
13z"/>
<path d="M4740 6132 c0 -13 39 -46 46 -40 8 9 -19 48 -33 48 -7 0 -13 -4 -13
-8z"/>
<path d="M5398 6108 c12 -12 25 -19 28 -15 4 4 -1 14 -12 22 -29 22 -41 18
-16 -7z"/>
<path d="M5460 6064 c0 -9 32 -33 44 -34 5 0 1 9 -9 20 -18 20 -35 26 -35 14z"/>
<path d="M4810 6052 c0 -14 36 -43 43 -35 4 3 0 15 -10 25 -17 19 -33 24 -33
10z"/>
<path d="M5550 6001 c0 -13 28 -33 41 -29 6 2 0 12 -15 21 -14 10 -26 13 -26
8z"/>
<path d="M4880 5977 c0 -18 28 -42 37 -33 9 8 -9 38 -25 44 -7 2 -12 -3 -12
-11z"/>
<path d="M5642 5934 c10 -10 20 -15 24 -12 3 4 -5 12 -18 18 -22 12 -22 12 -6
-6z"/>
<path d="M4950 5905 c0 -15 38 -40 47 -31 7 7 -26 46 -39 46 -4 0 -8 -7 -8
-15z"/>
<path d="M5700 5901 c0 -10 31 -31 45 -31 11 0 -5 20 -26 30 -12 7 -19 7 -19
1z"/>
<path d="M5032 5828 c6 -17 36 -34 44 -25 4 4 -1 14 -12 22 -23 18 -37 19 -32
3z"/>
<path d="M5880 5795 c7 -8 20 -15 29 -15 13 1 13 3 -3 15 -26 19 -42 19 -26 0z"/>
<path d="M5110 5763 c1 -12 51 -46 57 -39 9 8 -27 46 -44 46 -7 0 -13 -3 -13
-7z"/>
<path d="M5960 5762 c0 -12 39 -32 44 -23 3 4 -6 13 -19 19 -14 7 -25 8 -25 4z"/>
<path d="M6052 5719 c5 -14 48 -32 48 -20 0 4 -12 13 -26 20 -20 9 -25 9 -22
0z"/>
<path d="M5215 5680 c17 -19 45 -27 45 -14 0 11 -34 33 -49 34 -11 0 -10 -5 4
-20z"/>
<path d="M6150 5670 c8 -5 22 -10 30 -10 13 0 13 1 0 10 -8 5 -22 10 -30 10
-13 0 -13 -1 0 -10z"/>
<path d="M6240 5642 c0 -10 41 -24 49 -17 6 7 0 11 -26 19 -13 4 -23 3 -23 -2z"/>
<path d="M5290 5632 c0 -4 9 -13 20 -20 27 -17 47 -5 23 14 -20 15 -43 18 -43
6z"/>
<path d="M6334 5609 c-3 -5 -2 -9 3 -9 4 0 19 -3 32 -7 16 -4 22 -2 18 4 -9
15 -46 23 -53 12z"/>
<path d="M5386 5581 c-6 -8 5 -20 31 -35 23 -13 22 12 -2 28 -13 9 -26 12 -29
7z"/>
<path d="M6440 5579 c0 -5 4 -9 9 -9 5 0 17 -3 27 -7 11 -4 15 -3 11 4 -9 14
-47 24 -47 12z"/>
<path d="M6540 5551 c0 -11 49 -21 55 -11 3 4 -5 10 -18 14 -30 8 -37 7 -37
-3z"/>
<path d="M6640 5530 c0 -5 15 -10 33 -10 24 0 28 3 17 10 -20 13 -50 13 -50 0z"/>
<path d="M5480 5520 c0 -12 40 -33 48 -25 4 4 -2 13 -12 21 -23 16 -36 18 -36
4z"/>
<path d="M7366 5515 c-11 -8 -17 -18 -14 -21 11 -10 48 7 48 22 0 18 -10 17
-34 -1z"/>
<path d="M6751 5516 c12 -10 59 -15 59 -6 0 5 -14 10 -32 10 -17 0 -29 -2 -27
-4z"/>
<path d="M6850 5510 c0 -5 12 -10 26 -10 14 0 23 4 19 10 -3 6 -15 10 -26 10
-10 0 -19 -4 -19 -10z"/>
<path d="M5575 5480 c-6 -9 25 -30 44 -30 20 0 11 17 -14 28 -14 7 -27 7 -30
2z"/>
<path d="M7273 5468 c-24 -11 -31 -28 -12 -28 17 0 49 20 49 30 0 12 -9 12
-37 -2z"/>
<path d="M5670 5431 c0 -12 48 -27 57 -17 9 8 2 13 -30 21 -17 5 -27 3 -27 -4z"/>
<path d="M7165 5417 c-10 -8 -14 -16 -9 -19 13 -8 54 9 54 22 0 14 -23 13 -45
-3z"/>
<path d="M7068 5383 c-21 -5 -24 -23 -4 -23 22 0 46 11 46 21 0 9 -13 10 -42
2z"/>
<path d="M5882 5359 c5 -17 48 -25 48 -10 0 6 -4 11 -9 11 -5 0 -17 3 -27 7
-12 4 -15 2 -12 -8z"/>
<path d="M6973 5353 c-13 -2 -23 -11 -23 -19 0 -17 1 -17 34 -4 23 8 38 32 19
29 -5 -1 -18 -4 -30 -6z"/>
<path d="M5980 5330 c0 -12 48 -25 58 -16 8 9 -18 26 -40 26 -10 0 -18 -4 -18
-10z"/>
<path d="M6860 5318 l-25 -11 23 -5 c30 -5 55 5 47 18 -8 12 -13 12 -45 -2z"/>
<path d="M6090 5304 c0 -8 9 -14 20 -14 11 0 22 0 25 0 16 0 1 16 -20 22 -18
4 -25 2 -25 -8z"/>
<path d="M6763 5302 c-34 -5 -28 -22 7 -22 17 0 30 4 30 9 0 14 -11 18 -37 13z"/>
<path d="M6196 5292 c-3 -3 -3 -9 0 -13 7 -12 54 -12 54 0 0 10 -47 21 -54 13z"/>
<path d="M6637 5283 c-15 -14 -6 -24 20 -21 34 4 43 28 11 28 -14 0 -28 -3
-31 -7z"/>
<path d="M6300 5270 c0 -5 14 -10 30 -10 17 0 30 5 30 10 0 6 -13 10 -30 10
-16 0 -30 -4 -30 -10z"/>
<path d="M6417 5274 c-11 -12 3 -24 29 -24 15 0 24 6 24 15 0 15 -40 21 -53 9z"/>
<path d="M6520 5264 c0 -11 8 -14 27 -12 39 4 42 28 4 28 -21 0 -31 -5 -31
-16z"/>
  </g>

  <!-- Wordmark -->
  <g fill="#FAF6EC" stroke="currentColor"
     font-family="'Bodoni Moda','Bodoni Moda 96pt','Didot','Bodoni 72',Georgia,serif">
    <line x1="345" y1="822" x2="909" y2="822"
          stroke-width="1.5" opacity="0.35" stroke-linecap="round"/>
    <line x1="392" y1="876" x2="446" y2="876"
          stroke-width="2" opacity="0.55" stroke-linecap="round"/>
    <line x1="808" y1="876" x2="862" y2="876"
          stroke-width="2" opacity="0.55" stroke-linecap="round"/>
    <text x="627" y="884" text-anchor="middle"
          font-size="29" font-weight="500" letter-spacing="9"
          stroke="none">THE CENTER FOR</text>
    <text x="627" y="978" text-anchor="middle"
          font-size="90" font-weight="500" letter-spacing="5.4"
          stroke="none">DYNAMIC CAUSALITY</text>
  </g>
</svg>
